<?xml version="1.0" encoding="utf-8"?>
<svg viewBox="0 0 100 100" xmlns="http://www.w3.org/2000/svg" style="height: 100%; width: 100%; background: rgb(255, 255, 255); shape-rendering: auto;" width="47px" height="47px"><g class="ldl-scale" style="transform-origin: 50% 50%; transform: rotate(0deg) scale(0.8, 0.8);"><g class="ldl-ani"><g class="ldl-layer"><g class="ldl-ani"><g><g class="ldl-layer"><g class="ldl-ani" style="transform-origin: 50px 50px; transform: scale(1); animation: 1.11111s linear -0.901587s infinite normal forwards running beat-cdc6ba77-92c0-42dc-a996-3bff28cab2d1;"><path fill="#333" d="M47.5 90l1.1-75.7c0-.8.6-1.4 1.4-1.4.8 0 1.4.6 1.4 1.4L52.5 90c0 1.4-1.1 2.5-2.5 2.5-1.3.1-2.5-1-2.5-2.5 0 .1 0 0 0 0z" style="fill: rgb(51, 51, 51);"></path></g></g></g></g></g><g class="ldl-layer"><g class="ldl-ani"><g><g class="ldl-layer"><g class="ldl-ani" style="transform-origin: 50px 50px; transform: scale(1); animation: 1.11111s linear -0.936508s infinite normal forwards running beat-cdc6ba77-92c0-42dc-a996-3bff28cab2d1;"><path stroke-miterlimit="10" stroke-width="3.5" stroke="#333" fill="#abbd81" d="M68.5 23.2c-7.2 4.3-16.1 2.7-16.1 2.7s2.8-8.6 10-12.9 16.1-2.7 16.1-2.7-2.8 8.6-10 12.9z" style="fill: rgb(171, 189, 129); stroke: rgb(51, 51, 51);"></path></g></g><g class="ldl-layer"><g class="ldl-ani" style="transform-origin: 50px 50px; transform: scale(1); animation: 1.11111s linear -0.971429s infinite normal forwards running beat-cdc6ba77-92c0-42dc-a996-3bff28cab2d1;"><path stroke-miterlimit="10" stroke-width="3.5" stroke="#333" fill="#abbd81" d="M31.5 23.2c7.2 4.3 16.1 2.7 16.1 2.7s-2.8-8.6-10-12.9-16.1-2.7-16.1-2.7 2.8 8.6 10 12.9z" style="fill: rgb(171, 189, 129); stroke: rgb(51, 51, 51);"></path></g></g></g></g></g><g class="ldl-layer"><g class="ldl-ani"><g><g class="ldl-layer"><g class="ldl-ani" style="transform-origin: 50px 50px; transform: scale(1); animation: 1.11111s linear -1.00635s infinite normal forwards running beat-cdc6ba77-92c0-42dc-a996-3bff28cab2d1;"><path stroke-miterlimit="10" stroke-width="3.5" stroke="#333" fill="#abbd81" d="M69.5 47.7c-7.6 4.6-17 2.9-17 2.9s3-9.1 10.6-13.6c7.6-4.6 17-2.9 17-2.9s-3 9-10.6 13.6z" style="fill: rgb(171, 189, 129); stroke: rgb(51, 51, 51);"></path></g></g><g class="ldl-layer"><g class="ldl-ani" style="transform-origin: 50px 50px; transform: scale(1); animation: 1.11111s linear -1.04127s infinite normal forwards running beat-cdc6ba77-92c0-42dc-a996-3bff28cab2d1;"><path stroke-miterlimit="10" stroke-width="3.5" stroke="#333" fill="#abbd81" d="M30.5 47.7c7.6 4.6 17 2.9 17 2.9s-3-9.1-10.6-13.6-17-2.9-17-2.9 3 9 10.6 13.6z" style="fill: rgb(171, 189, 129); stroke: rgb(51, 51, 51);"></path></g></g></g></g></g><g class="ldl-layer"><g class="ldl-ani"><g><g class="ldl-layer"><g class="ldl-ani" style="transform-origin: 50px 50px; transform: scale(1); animation: 1.11111s linear -1.07619s infinite normal forwards running beat-cdc6ba77-92c0-42dc-a996-3bff28cab2d1;"><path stroke-miterlimit="10" stroke-width="3.5" stroke="#333" fill="#abbd81" d="M71.4 74.4c-8.4 5-18.7 3.1-18.7 3.1s3.3-10 11.7-15 18.7-3.1 18.7-3.1-3.3 10-11.7 15z" style="fill: rgb(171, 189, 129); stroke: rgb(51, 51, 51);"></path></g></g><g class="ldl-layer"><g class="ldl-ani" style="transform-origin: 50px 50px; transform: scale(1); animation: 1.11111s linear -1.11111s infinite normal forwards running beat-cdc6ba77-92c0-42dc-a996-3bff28cab2d1;"><path stroke-miterlimit="10" stroke-width="3.5" stroke="#333" fill="#abbd81" d="M28.6 74.4c8.4 5 18.7 3.1 18.7 3.1s-3.3-10-11.7-15-18.7-3.1-18.7-3.1 3.3 10 11.7 15z" style="fill: rgb(171, 189, 129); stroke: rgb(51, 51, 51);"></path></g></g></g></g></g><metadata xmlns:d="https://loading.io/stock/">
<d:name>leaf</d:name>
<d:tags>leaf,plant,leaves,tree,bud,burgreen,shoot,sprout,stem,grow,newbie,tender</d:tags>
<d:license>by</d:license>
<d:slug>i6011i</d:slug>
</metadata></g></g><style id="beat-cdc6ba77-92c0-42dc-a996-3bff28cab2d1" data-anikit="">@keyframes beat-cdc6ba77-92c0-42dc-a996-3bff28cab2d1
{
  0% {
    animation-timing-function: cubic-bezier(0.1028,0.2484,0.1372,0.849);
    transform: scale(1);
  }
  34% {
    animation-timing-function: cubic-bezier(0.7116,0.2095,0.8159,0.6876);
    transform: scale(1.2);
  }
  68% {
    animation-timing-function: cubic-bezier(0.1475,0.2888,0.294,0.883);
    transform: scale(1.0268);
  }
  84% {
    animation-timing-function: cubic-bezier(0.8176,0.2193,0.867,0.6889);
    transform: scale(1.0932);
  }
  100% {
    transform: scale(1);
  }
}</style><!-- [ldio] generated by https://loading.io/ --></svg>